<?xml version="1.0" encoding="UTF-8"?>
<!DOCTYPE svg PUBLIC "-//W3C//DTD SVG 1.1//EN" "http://www.w3.org/Graphics/SVG/1.1/DTD/svg11.dtd">
<svg xmlns="http://www.w3.org/2000/svg" version="1.1" width="500px" height="281px" style="shape-rendering:geometricPrecision; text-rendering:geometricPrecision; image-rendering:optimizeQuality; fill-rule:evenodd; clip-rule:evenodd" xmlns:xlink="http://www.w3.org/1999/xlink">
<g><path style="opacity:0.987" fill="#f3eb18" d="M 193.5,79.5 C 187.695,84.4554 185.195,90.7887 186,98.5C 179.833,106 173.667,113.5 167.5,121C 168.819,121.195 170.153,121.028 171.5,120.5C 176.481,121.089 181.481,121.589 186.5,122C 187.126,122.75 187.626,123.584 188,124.5C 189.046,122.91 190.213,121.41 191.5,120C 203.5,119.667 215.5,119.333 227.5,119C 229.148,117.323 230.815,117.156 232.5,118.5C 228.799,118.868 226.799,120.868 226.5,124.5C 226.565,124.062 226.399,123.728 226,123.5C 220.4,124.146 214.9,124.813 209.5,125.5C 205.541,126.106 201.541,126.773 197.5,127.5C 196.674,128.451 196.508,129.451 197,130.5C 201.462,129.745 205.962,129.078 210.5,128.5C 214.012,127.945 217.012,128.612 219.5,130.5C 217.38,131.451 215.714,132.951 214.5,135C 208.473,135.427 202.473,136.093 196.5,137C 194.026,137.037 192.026,137.87 190.5,139.5C 187.266,140.576 183.932,141.243 180.5,141.5C 180.5,142.5 180.5,143.5 180.5,144.5C 178.5,144.5 176.5,144.5 174.5,144.5C 175.167,143.167 175.833,141.833 176.5,140.5C 177.167,140.5 177.5,140.167 177.5,139.5C 179.49,138.001 181.823,137.168 184.5,137C 183.376,136.751 182.376,136.251 181.5,135.5C 182.648,133.851 183.981,132.351 185.5,131C 185.167,130.833 184.833,130.667 184.5,130.5C 182.167,132.333 179.833,134.167 177.5,136C 174.167,136.333 170.833,136.667 167.5,137C 169.577,137.192 171.577,137.692 173.5,138.5C 170.65,140.427 167.983,142.594 165.5,145C 160.949,146.215 156.282,146.881 151.5,147C 154.5,147.333 157.5,147.667 160.5,148C 159.016,149.574 157.349,150.907 155.5,152C 151.49,152.501 147.49,153.001 143.5,153.5C 143.5,154.5 143.5,155.5 143.5,156.5C 146.024,155.188 148.691,154.688 151.5,155C 148.189,157.567 144.689,159.734 141,161.5C 136.709,159.373 132.543,157.04 128.5,154.5C 127.884,153.798 127.884,152.798 128.5,151.5C 129.167,151.5 129.5,151.167 129.5,150.5C 130.167,150.5 130.5,150.167 130.5,149.5C 131.338,149.158 131.672,148.492 131.5,147.5C 132.167,147.5 132.5,147.167 132.5,146.5C 133.167,146.5 133.5,146.167 133.5,145.5C 134.401,144.71 135.068,143.71 135.5,142.5C 136.167,142.5 136.5,142.167 136.5,141.5C 137.167,141.5 137.5,141.167 137.5,140.5C 138.5,139.167 139.5,137.833 140.5,136.5C 141.167,136.5 141.5,136.167 141.5,135.5C 144.833,131.167 148.167,126.833 151.5,122.5C 158.802,114.359 165.968,106.025 173,97.5C 175.101,96.0755 177.267,94.7422 179.5,93.5C 183.311,88.5209 187.311,83.6876 191.5,79C 192.437,78.3083 193.103,78.475 193.5,79.5 Z M 166.5,132.5 C 163.411,134.925 160.078,136.925 156.5,138.5C 158.304,133.274 161.637,131.274 166.5,132.5 Z"/></g>
<g><path style="opacity:1" fill="#f6ec11" d="M 121.5,101.5 C 117.489,101.502 113.822,102.668 110.5,105C 107.167,105.333 103.833,105.667 100.5,106C 84.1397,114.846 67.8063,123.679 51.5,132.5C 50.8333,132.833 50.1667,133.167 49.5,133.5C 49.2914,132.078 48.7914,130.745 48,129.5C 45.6667,129.5 43.3333,129.5 41,129.5C 40.6667,130.167 40.3333,130.833 40,131.5C 39.3551,130.354 38.5217,129.354 37.5,128.5C 37.8627,127.817 38.1961,127.15 38.5,126.5C 60.1419,116.846 81.4752,106.346 102.5,95C 105.264,94.4677 107.93,93.6343 110.5,92.5C 115.153,94.5036 118.819,97.5036 121.5,101.5 Z"/></g>
<g><path style="opacity:0.416" fill="#59c1d0" d="M 193.5,79.5 C 194.573,80.2506 194.74,81.2506 194,82.5C 188.785,87.2191 186.785,92.8857 188,99.5C 182.286,106.375 176.786,113.375 171.5,120.5C 170.153,121.028 168.819,121.195 167.5,121C 173.667,113.5 179.833,106 186,98.5C 185.195,90.7887 187.695,84.4554 193.5,79.5 Z"/></g>
<g><path style="opacity:0.539" fill="#55c0d4" d="M 121.5,101.5 C 121.063,103.074 120.063,104.241 118.5,105C 116.377,105.815 114.377,106.815 112.5,108C 109.189,107.785 105.856,107.785 102.5,108C 87.3326,116.364 72.3326,124.864 57.5,133.5C 55.2646,133.795 53.2646,133.461 51.5,132.5C 67.8063,123.679 84.1397,114.846 100.5,106C 103.833,105.667 107.167,105.333 110.5,105C 113.822,102.668 117.489,101.502 121.5,101.5 Z"/></g>
<g><path style="opacity:1" fill="#f5eb16" d="M 478.5,104.5 C 474.713,106.452 471.713,109.286 469.5,113C 456.5,120.167 443.5,127.333 430.5,134.5C 431.689,135.429 433.022,135.762 434.5,135.5C 436.927,137.558 439.593,139.391 442.5,141C 443.823,141.816 444.489,142.983 444.5,144.5C 438.167,144.5 431.833,144.5 425.5,144.5C 422.665,142.918 419.665,141.585 416.5,140.5C 414.712,141.437 413.379,142.77 412.5,144.5C 409.102,144.82 405.768,144.487 402.5,143.5C 403.706,141.206 404.706,138.873 405.5,136.5C 408.833,136.5 412.167,136.5 415.5,136.5C 417.379,136.607 417.712,136.107 416.5,135C 412.975,134.821 409.641,134.321 406.5,133.5C 406.5,132.833 406.5,132.167 406.5,131.5C 407.338,131.158 407.672,130.492 407.5,129.5C 408.338,129.158 408.672,128.492 408.5,127.5C 409.338,127.158 409.672,126.492 409.5,125.5C 411.655,122.537 413.822,119.537 416,116.5C 418.964,117.517 421.964,117.517 425,116.5C 426.681,116.608 427.848,117.275 428.5,118.5C 424.994,121.655 422.327,125.489 420.5,130C 422.412,130.279 423.746,129.446 424.5,127.5C 425.167,127.5 425.5,127.167 425.5,126.5C 443.286,118.441 460.952,110.107 478.5,101.5C 479.776,102.614 479.776,103.614 478.5,104.5 Z"/></g>
<g><path style="opacity:0.307" fill="#4bbfdb" d="M 474.5,110.5 C 479.386,109.405 481.052,111.072 479.5,115.5C 475.54,116.612 473.873,114.945 474.5,110.5 Z"/></g>
<g><path style="opacity:1" fill="#f3eb17" d="M 371.5,111.5 C 371.355,115.496 371.688,119.663 372.5,124C 368.512,132.153 364.179,139.986 359.5,147.5C 352.934,146.335 350.101,149.002 351,155.5C 352.65,154.109 353.15,152.609 352.5,151C 354.387,150.22 356.054,150.387 357.5,151.5C 356.168,154.835 354.335,157.835 352,160.5C 349.78,158.807 347.28,157.807 344.5,157.5C 344.5,156.833 344.5,156.167 344.5,155.5C 346.002,153.825 347.335,151.992 348.5,150C 342.685,152.925 337.018,156.425 331.5,160.5C 329.757,158.962 327.757,157.962 325.5,157.5C 324.876,157.083 324.543,156.416 324.5,155.5C 325.979,150.397 327.646,145.397 329.5,140.5C 330.167,140.5 330.5,140.167 330.5,139.5C 332.191,138.136 333.858,136.803 335.5,135.5C 337.741,135.046 339.741,135.046 341.5,135.5C 341.5,136.5 341.5,137.5 341.5,138.5C 338.912,142.098 337.412,146.098 337,150.5C 337.852,149.429 338.685,148.429 339.5,147.5C 340.167,147.5 340.5,147.167 340.5,146.5C 345.057,143.634 349.557,140.634 354,137.5C 359.305,128.383 365.138,119.716 371.5,111.5 Z"/></g>
<g><path style="opacity:0.995" fill="#f5ec16" d="M 356.5,118.5 C 354.825,121.507 354.159,124.84 354.5,128.5C 347.873,130.262 341.539,132.595 335.5,135.5C 332.461,136.01 329.461,136.677 326.5,137.5C 319.492,137.666 312.492,137.5 305.5,137C 308.718,136.1 311.718,134.933 314.5,133.5C 317.215,131.928 320.215,130.928 323.5,130.5C 327.41,129.148 331.41,127.982 335.5,127C 324.343,126.064 313.343,126.897 302.5,129.5C 301.153,132.193 299.82,134.86 298.5,137.5C 296.804,137.685 295.471,138.519 294.5,140C 291.773,140.818 289.106,140.652 286.5,139.5C 288.371,136.766 289.371,133.766 289.5,130.5C 290.754,126.824 292.421,123.324 294.5,120C 313.6,119.101 332.6,117.934 351.5,116.5C 353.64,116.556 355.306,117.223 356.5,118.5 Z M 323.5,130.5 C 320.215,130.928 317.215,131.928 314.5,133.5C 310.12,134.293 305.786,135.293 301.5,136.5C 302.242,134.574 303.242,132.741 304.5,131C 309.681,130.638 314.848,130.138 320,129.5C 321.385,129.514 322.551,129.848 323.5,130.5 Z"/></g>
<g><path style="opacity:0.992" fill="#f8ec0b" d="M 232.5,118.5 C 248.552,118.337 264.552,119.17 280.5,121C 282.54,123.185 283.874,125.685 284.5,128.5C 272.912,132.362 261.246,136.029 249.5,139.5C 249.957,140.298 250.624,140.631 251.5,140.5C 240.346,141.495 229.012,141.828 217.5,141.5C 219.694,136.92 221.694,132.254 223.5,127.5C 224.5,127.167 225.167,126.5 225.5,125.5C 226.167,125.5 226.5,125.167 226.5,124.5C 226.799,120.868 228.799,118.868 232.5,118.5 Z M 253.5,128.5 C 247.991,130.299 242.324,131.965 236.5,133.5C 235.817,133.137 235.15,132.804 234.5,132.5C 234.33,131.178 234.663,130.011 235.5,129C 241.491,128.501 247.491,128.334 253.5,128.5 Z"/></g>
<g><path style="opacity:0.2" fill="#5bc2ce" d="M 374.5,124.5 C 374.107,126.284 373.441,127.95 372.5,129.5C 371.833,129.5 371.5,129.833 371.5,130.5C 371.5,130.833 371.5,131.167 371.5,131.5C 370.833,131.5 370.5,131.833 370.5,132.5C 370.672,133.492 370.338,134.158 369.5,134.5C 368.833,134.5 368.5,134.833 368.5,135.5C 368.5,135.833 368.5,136.167 368.5,136.5C 367.833,136.5 367.5,136.833 367.5,137.5C 367.5,137.833 367.5,138.167 367.5,138.5C 366.833,138.5 366.5,138.833 366.5,139.5C 366.5,139.833 366.5,140.167 366.5,140.5C 365.833,140.5 365.5,140.833 365.5,141.5C 364.833,141.5 364.5,141.833 364.5,142.5C 364.5,142.833 364.5,143.167 364.5,143.5C 363.833,143.5 363.5,143.833 363.5,144.5C 363.5,144.833 363.5,145.167 363.5,145.5C 362.833,145.5 362.5,145.833 362.5,146.5C 362.5,146.833 362.5,147.167 362.5,147.5C 361.833,147.5 361.5,147.833 361.5,148.5C 361.5,148.833 361.5,149.167 361.5,149.5C 360.833,149.5 360.5,149.833 360.5,150.5C 359.662,150.842 359.328,151.508 359.5,152.5C 359.5,152.833 359.5,153.167 359.5,153.5C 357.531,157.038 355.197,160.371 352.5,163.5C 350.167,162.333 347.833,161.167 345.5,160C 344.748,159.329 344.414,158.496 344.5,157.5C 347.28,157.807 349.78,158.807 352,160.5C 354.335,157.835 356.168,154.835 357.5,151.5C 358.674,150.486 359.34,149.153 359.5,147.5C 364.179,139.986 368.512,132.153 372.5,124C 371.688,119.663 371.355,115.496 371.5,111.5C 372.465,108.915 373.799,108.415 375.5,110C 372.966,114.91 372.633,119.743 374.5,124.5 Z"/></g>
<g><path style="opacity:0.981" fill="#f6ec12" d="M 151.5,121.5 C 150.279,122.028 149.113,122.695 148,123.5C 141.969,131.024 135.802,138.357 129.5,145.5C 127.901,144.438 126.234,144.438 124.5,145.5C 122.698,144.542 120.698,143.875 118.5,143.5C 118.5,143.167 118.5,142.833 118.5,142.5C 122.231,141.93 124.397,139.93 125,136.5C 123.883,138.124 122.383,139.124 120.5,139.5C 117.051,138.452 114.384,136.452 112.5,133.5C 110.118,124.94 112.952,119.274 121,116.5C 122.861,117.609 123.695,119.275 123.5,121.5C 122.621,124.812 122.454,128.145 123,131.5C 127.5,127.667 132,123.833 136.5,120C 139,119.833 141.5,119.667 144,119.5C 146.929,119.525 149.429,120.191 151.5,121.5 Z"/></g>
<g><path style="opacity:0.996" fill="#f5ec13" d="M 409.5,123.5 C 407.567,124.642 406.067,126.308 405,128.5C 402.409,134.019 399.575,139.352 396.5,144.5C 390.741,144.786 385.075,144.452 379.5,143.5C 379.741,140.001 378.908,139.668 377,142.5C 374.922,146.25 372.756,149.917 370.5,153.5C 366.843,154.248 363.177,154.915 359.5,155.5C 359.5,154.833 359.5,154.167 359.5,153.5C 359.5,153.167 359.5,152.833 359.5,152.5C 360.338,152.158 360.672,151.492 360.5,150.5C 361.167,150.5 361.5,150.167 361.5,149.5C 361.5,149.167 361.5,148.833 361.5,148.5C 362.167,148.5 362.5,148.167 362.5,147.5C 362.5,147.167 362.5,146.833 362.5,146.5C 363.167,146.5 363.5,146.167 363.5,145.5C 363.5,145.167 363.5,144.833 363.5,144.5C 364.167,144.5 364.5,144.167 364.5,143.5C 364.5,143.167 364.5,142.833 364.5,142.5C 365.167,142.5 365.5,142.167 365.5,141.5C 366.167,141.5 366.5,141.167 366.5,140.5C 366.5,140.167 366.5,139.833 366.5,139.5C 367.167,139.5 367.5,139.167 367.5,138.5C 367.5,138.167 367.5,137.833 367.5,137.5C 368.167,137.5 368.5,137.167 368.5,136.5C 368.5,136.167 368.5,135.833 368.5,135.5C 369.167,135.5 369.5,135.167 369.5,134.5C 370.338,134.158 370.672,133.492 370.5,132.5C 371.167,132.5 371.5,132.167 371.5,131.5C 371.5,131.167 371.5,130.833 371.5,130.5C 372.167,130.5 372.5,130.167 372.5,129.5C 373.441,127.95 374.107,126.284 374.5,124.5C 375.682,122.162 377.348,120.162 379.5,118.5C 380.386,119.325 380.719,120.325 380.5,121.5C 381.5,121.5 382.5,121.5 383.5,121.5C 384.996,127.486 386.496,133.486 388,139.5C 391.248,133.336 394.748,127.336 398.5,121.5C 402.107,120.511 405.774,120.177 409.5,120.5C 409.5,121.5 409.5,122.5 409.5,123.5 Z"/></g>
<g><path style="opacity:0.229" fill="#66c4c5" d="M 428.5,118.5 C 427.5,121.167 426.5,123.833 425.5,126.5C 424.833,126.5 424.5,126.833 424.5,127.5C 423.746,129.446 422.412,130.279 420.5,130C 422.327,125.489 424.994,121.655 428.5,118.5 Z"/></g>
<g><path style="opacity:1" fill="#79cba3" d="M 226.5,124.5 C 226.5,125.167 226.167,125.5 225.5,125.5C 220.167,125.5 214.833,125.5 209.5,125.5C 214.9,124.813 220.4,124.146 226,123.5C 226.399,123.728 226.565,124.062 226.5,124.5 Z"/></g>
<g><path style="opacity:1" fill="#badb5a" d="M 234.5,126.5 C 244.341,125.177 254.341,125.177 264.5,126.5C 264.376,127.107 264.043,127.44 263.5,127.5C 254.014,126.506 244.348,126.173 234.5,126.5 Z"/></g>
<g><path style="opacity:0.503" fill="#59c1d1" d="M 478.5,104.5 C 478.649,105.552 478.483,106.552 478,107.5C 476.482,108.163 475.315,109.163 474.5,110.5C 473.399,111.848 472.399,113.348 471.5,115C 459.105,121.861 446.771,128.695 434.5,135.5C 433.022,135.762 431.689,135.429 430.5,134.5C 443.5,127.333 456.5,120.167 469.5,113C 471.713,109.286 474.713,106.452 478.5,104.5 Z"/></g>
<g><path style="opacity:0.532" fill="#51c0d8" d="M 234.5,126.5 C 244.348,126.173 254.014,126.506 263.5,127.5C 260.214,128.207 256.881,128.54 253.5,128.5C 247.491,128.334 241.491,128.501 235.5,129C 234.663,130.011 234.33,131.178 234.5,132.5C 233.503,132.53 232.836,132.03 232.5,131C 233.044,129.415 233.711,127.915 234.5,126.5 Z"/></g>
<g><path style="opacity:0.611" fill="#59c1d1" d="M 209.5,125.5 C 214.833,125.5 220.167,125.5 225.5,125.5C 225.167,126.5 224.5,127.167 223.5,127.5C 218.968,127.182 214.634,127.515 210.5,128.5C 205.962,129.078 201.462,129.745 197,130.5C 196.508,129.451 196.674,128.451 197.5,127.5C 201.541,126.773 205.541,126.106 209.5,125.5 Z"/></g>
<g><path style="opacity:0.584" fill="#58c1d1" d="M 323.5,130.5 C 322.551,129.848 321.385,129.514 320,129.5C 314.848,130.138 309.681,130.638 304.5,131C 303.242,132.741 302.242,134.574 301.5,136.5C 300.542,136.953 299.708,137.619 299,138.5C 298.601,138.272 298.435,137.938 298.5,137.5C 299.82,134.86 301.153,132.193 302.5,129.5C 313.343,126.897 324.343,126.064 335.5,127C 331.41,127.982 327.41,129.148 323.5,130.5 Z"/></g>
<g><path style="opacity:0.566" fill="#58c1d0" d="M 36.5,127.5 C 35.0125,129.605 33.0125,131.272 30.5,132.5C 32.396,133.466 34.396,133.799 36.5,133.5C 32.7016,134.483 28.7016,134.817 24.5,134.5C 24.5,134.167 24.5,133.833 24.5,133.5C 27.9468,130.562 31.9468,128.562 36.5,127.5 Z"/></g>
<g><path style="opacity:1" fill="#f3eb15" d="M 38.5,126.5 C 38.1961,127.15 37.8627,127.817 37.5,128.5C 38.5217,129.354 39.3551,130.354 40,131.5C 40.3333,130.833 40.6667,130.167 41,129.5C 43.3333,129.5 45.6667,129.5 48,129.5C 48.7914,130.745 49.2914,132.078 49.5,133.5C 49.5858,134.496 49.2524,135.329 48.5,136C 64.8435,136.833 81.1769,136.666 97.5,135.5C 97.3764,134.893 97.0431,134.56 96.5,134.5C 88.4931,134.666 80.4931,134.5 72.5,134C 71.5842,133.722 70.9175,133.222 70.5,132.5C 81.575,132.914 92.575,132.247 103.5,130.5C 106.311,130.974 108.645,132.307 110.5,134.5C 111.209,135.404 112.209,135.737 113.5,135.5C 114.178,139.273 112.844,142.106 109.5,144C 81.143,144.507 52.8096,146.007 24.5,148.5C 21.8333,148.333 19.1667,148.167 16.5,148C 12.578,146.202 8.57795,144.702 4.5,143.5C 0.603686,141.213 1.10369,139.546 6,138.5C 6.87318,138.735 7.70651,139.069 8.5,139.5C 13.9283,137.691 19.2617,135.691 24.5,133.5C 24.5,133.833 24.5,134.167 24.5,134.5C 26.1175,135.972 28.1175,136.639 30.5,136.5C 33.3412,135.803 36.0079,135.47 38.5,135.5C 41.3553,136.803 44.3553,136.803 47.5,135.5C 47.3764,134.893 47.0431,134.56 46.5,134.5C 43.3752,133.521 40.0419,133.187 36.5,133.5C 34.396,133.799 32.396,133.466 30.5,132.5C 33.0125,131.272 35.0125,129.605 36.5,127.5C 36.8417,126.662 37.5084,126.328 38.5,126.5 Z"/></g>
<g><path style="opacity:0.492" fill="#65c3c8" d="M 356.5,118.5 C 357.043,118.56 357.376,118.893 357.5,119.5C 356.373,123.135 355.373,126.802 354.5,130.5C 350.265,132.452 345.932,134.119 341.5,135.5C 339.741,135.046 337.741,135.046 335.5,135.5C 341.539,132.595 347.873,130.262 354.5,128.5C 354.159,124.84 354.825,121.507 356.5,118.5 Z"/></g>
<g><path style="opacity:0.837" fill="#58c1d0" d="M 70.5,132.5 C 70.9175,133.222 71.5842,133.722 72.5,134C 80.4931,134.5 88.4931,134.666 96.5,134.5C 90.3424,135.166 84.009,135.5 77.5,135.5C 70.7963,135.496 64.463,134.83 58.5,133.5C 62.6002,133.763 66.6002,133.43 70.5,132.5 Z"/></g>
<g><path style="opacity:1" fill="#bbdc56" d="M 36.5,133.5 C 40.0419,133.187 43.3752,133.521 46.5,134.5C 43.6146,134.194 40.9479,134.527 38.5,135.5C 36.0079,135.47 33.3412,135.803 30.5,136.5C 28.1175,136.639 26.1175,135.972 24.5,134.5C 28.7016,134.817 32.7016,134.483 36.5,133.5 Z"/></g>
<g><path style="opacity:1" fill="#9ed476" d="M 405.5,133.5 C 405.833,133.5 406.167,133.5 406.5,133.5C 409.641,134.321 412.975,134.821 416.5,135C 417.712,136.107 417.379,136.607 415.5,136.5C 412.375,135.521 409.042,135.187 405.5,135.5C 405.5,134.833 405.5,134.167 405.5,133.5 Z"/></g>
<g><path style="opacity:1" fill="#7fcaa6" d="M 46.5,134.5 C 47.0431,134.56 47.3764,134.893 47.5,135.5C 44.3553,136.803 41.3553,136.803 38.5,135.5C 40.9479,134.527 43.6146,134.194 46.5,134.5 Z"/></g>
<g><path style="opacity:1" fill="#7dcaa6" d="M 51.5,132.5 C 53.2646,133.461 55.2646,133.795 57.5,133.5C 57.8333,133.5 58.1667,133.5 58.5,133.5C 64.463,134.83 70.7963,135.496 77.5,135.5C 84.009,135.5 90.3424,135.166 96.5,134.5C 97.0431,134.56 97.3764,134.893 97.5,135.5C 81.1769,136.666 64.8435,136.833 48.5,136C 49.2524,135.329 49.5858,134.496 49.5,133.5C 50.1667,133.167 50.8333,132.833 51.5,132.5 Z"/></g>
<g><path style="opacity:0.125" fill="#5ac1d0" d="M 284.5,128.5 C 284.426,130.411 283.426,131.578 281.5,132C 272.965,135.067 264.299,137.734 255.5,140C 254.944,140.383 254.611,140.883 254.5,141.5C 253.609,140.89 252.609,140.557 251.5,140.5C 250.624,140.631 249.957,140.298 249.5,139.5C 261.246,136.029 272.912,132.362 284.5,128.5 Z"/></g>
<g><path style="opacity:0.263" fill="#5bc1ce" d="M 166.5,132.5 C 161.637,131.274 158.304,133.274 156.5,138.5C 155.833,138.5 155.5,138.833 155.5,139.5C 154.833,139.5 154.5,139.833 154.5,140.5C 152.037,142.461 149.703,144.628 147.5,147C 146.833,147.667 146.167,147.667 145.5,147C 150.697,140.139 156.53,133.973 163,128.5C 165.824,129.054 168.657,129.554 171.5,130C 169.807,130.847 168.14,131.68 166.5,132.5 Z"/></g>
<g><path style="opacity:0.673" fill="#57c1d2" d="M 219.5,130.5 C 218.982,133.68 217.316,136.013 214.5,137.5C 207.847,138.399 201.18,139.232 194.5,140C 193.058,140.377 192.058,141.21 191.5,142.5C 188.509,144.417 185.176,145.417 181.5,145.5C 181.5,144.5 181.5,143.5 181.5,142.5C 184.247,142.813 186.914,142.48 189.5,141.5C 189.863,140.817 190.196,140.15 190.5,139.5C 192.026,137.87 194.026,137.037 196.5,137C 202.473,136.093 208.473,135.427 214.5,135C 215.714,132.951 217.38,131.451 219.5,130.5 Z"/></g>
<g><path style="opacity:1" fill="#f3eb17" d="M 289.5,130.5 C 289.371,133.766 288.371,136.766 286.5,139.5C 289.106,140.652 291.773,140.818 294.5,140C 295.471,138.519 296.804,137.685 298.5,137.5C 298.435,137.938 298.601,138.272 299,138.5C 299.708,137.619 300.542,136.953 301.5,136.5C 305.786,135.293 310.12,134.293 314.5,133.5C 311.718,134.933 308.718,136.1 305.5,137C 312.492,137.5 319.492,137.666 326.5,137.5C 315.445,142.015 304.112,146.015 292.5,149.5C 287.18,158.983 282.347,168.65 278,178.5C 273.382,181.45 269.048,184.784 265,188.5C 263.311,193.169 260.811,197.169 257.5,200.5C 256.427,199.749 256.26,198.749 257,197.5C 263.452,184.265 269.619,170.932 275.5,157.5C 276.167,157.5 276.5,157.167 276.5,156.5C 277.415,154.246 278.748,152.246 280.5,150.5C 278.344,148.991 276.01,147.991 273.5,147.5C 273.281,146.325 273.614,145.325 274.5,144.5C 277.806,143.455 280.973,142.122 284,140.5C 285.608,136.944 287.441,133.611 289.5,130.5 Z"/></g>
<g><path style="opacity:0.094" fill="#69c4c2" d="M 341.5,138.5 C 341.425,141.206 341.092,143.873 340.5,146.5C 339.833,146.5 339.5,146.833 339.5,147.5C 338.685,148.429 337.852,149.429 337,150.5C 337.412,146.098 338.912,142.098 341.5,138.5 Z"/></g>
<g><path style="opacity:0.998" fill="#b0d869" d="M 117.5,144.5 C 117.5,143.833 117.833,143.5 118.5,143.5C 120.698,143.875 122.698,144.542 124.5,145.5C 122.05,145.702 119.717,145.369 117.5,144.5 Z"/></g>
<g><path style="opacity:1" fill="#95d185" d="M 190.5,139.5 C 190.196,140.15 189.863,140.817 189.5,141.5C 186.914,142.48 184.247,142.813 181.5,142.5C 181.5,143.5 181.5,144.5 181.5,145.5C 180.508,145.328 179.842,145.662 179.5,146.5C 177.379,146.675 175.379,146.341 173.5,145.5C 173.5,144.833 173.833,144.5 174.5,144.5C 176.5,144.5 178.5,144.5 180.5,144.5C 180.5,143.5 180.5,142.5 180.5,141.5C 183.932,141.243 187.266,140.576 190.5,139.5 Z"/></g>
<g><path style="opacity:1" fill="#e8e829" d="M 216.5,141.5 C 214.661,142.508 213.328,144.008 212.5,146C 208.495,148.204 204.329,148.704 200,147.5C 198.346,149.263 196.513,149.596 194.5,148.5C 193.41,149.727 192.076,150.56 190.5,151C 186.798,151.676 183.131,152.509 179.5,153.5C 177.004,152.749 174.67,151.749 172.5,150.5C 171.167,149.5 171.167,148.5 172.5,147.5C 175.059,147.802 177.393,147.468 179.5,146.5C 179.842,145.662 180.508,145.328 181.5,145.5C 185.176,145.417 188.509,144.417 191.5,142.5C 199.542,141.382 207.542,140.049 215.5,138.5C 216.386,139.325 216.719,140.325 216.5,141.5 Z"/></g>
<g><path style="opacity:1" fill="#add76a" d="M 379.5,143.5 C 385.075,144.452 390.741,144.786 396.5,144.5C 396.5,145.167 396.167,145.5 395.5,145.5C 390.5,145.5 385.5,145.5 380.5,145.5C 380.5,146.5 380.5,147.5 380.5,148.5C 379.566,147.432 379.232,146.099 379.5,144.5C 379.5,144.167 379.5,143.833 379.5,143.5 Z"/></g>
<g><path style="opacity:0.996" fill="#dae43b" d="M 404.5,135.5 C 404.833,135.5 405.167,135.5 405.5,135.5C 409.042,135.187 412.375,135.521 415.5,136.5C 412.167,136.5 408.833,136.5 405.5,136.5C 404.706,138.873 403.706,141.206 402.5,143.5C 405.768,144.487 409.102,144.82 412.5,144.5C 410.664,149.492 408.164,154.159 405,158.5C 399.879,156.122 399.046,152.622 402.5,148C 402.613,146.301 401.947,145.134 400.5,144.5C 400.5,143.833 400.5,143.167 400.5,142.5C 401.338,142.158 401.672,141.492 401.5,140.5C 402.338,140.158 402.672,139.492 402.5,138.5C 403.906,138.027 404.573,137.027 404.5,135.5 Z"/></g>
<g><path style="opacity:1" fill="#f3eb16" d="M 117.5,144.5 C 119.717,145.369 122.05,145.702 124.5,145.5C 126.234,144.438 127.901,144.438 129.5,145.5C 121.547,155.862 113.213,166.029 104.5,176C 99.5882,177.929 94.9216,180.262 90.5,183C 86.9681,187.36 83.3014,191.527 79.5,195.5C 78.9569,195.44 78.6236,195.107 78.5,194.5C 91.5087,177.803 104.509,161.137 117.5,144.5 Z"/></g>
<g><path style="opacity:1" fill="#c7de51" d="M 425.5,144.5 C 431.833,144.5 438.167,144.5 444.5,144.5C 444.5,144.833 444.5,145.167 444.5,145.5C 439.363,146.068 434.363,146.734 429.5,147.5C 428.128,146.488 426.795,145.488 425.5,144.5 Z"/></g>
<g><path style="opacity:1" fill="#5cc2ca" d="M 173.5,145.5 C 175.379,146.341 177.379,146.675 179.5,146.5C 177.393,147.468 175.059,147.802 172.5,147.5C 172.833,146.833 173.167,146.167 173.5,145.5 Z"/></g>
<g><path style="opacity:1" fill="#f1ea1b" d="M 395.5,145.5 C 393.971,148.723 392.305,151.89 390.5,155C 387.408,155.736 384.408,155.569 381.5,154.5C 380.85,152.565 380.517,150.565 380.5,148.5C 380.5,147.5 380.5,146.5 380.5,145.5C 385.5,145.5 390.5,145.5 395.5,145.5 Z"/></g>
<g><path style="opacity:0.296" fill="#5ac1cf" d="M 409.5,123.5 C 409.5,124.167 409.5,124.833 409.5,125.5C 408.662,125.842 408.328,126.508 408.5,127.5C 407.662,127.842 407.328,128.508 407.5,129.5C 406.662,129.842 406.328,130.508 406.5,131.5C 405.662,131.842 405.328,132.508 405.5,133.5C 404.662,133.842 404.328,134.508 404.5,135.5C 403.094,135.973 402.427,136.973 402.5,138.5C 401.662,138.842 401.328,139.508 401.5,140.5C 400.662,140.842 400.328,141.508 400.5,142.5C 397.4,147.185 394.4,152.019 391.5,157C 389.153,157.436 386.819,157.936 384.5,158.5C 382.532,157.9 381.532,156.567 381.5,154.5C 384.408,155.569 387.408,155.736 390.5,155C 392.305,151.89 393.971,148.723 395.5,145.5C 396.167,145.5 396.5,145.167 396.5,144.5C 399.575,139.352 402.409,134.019 405,128.5C 406.067,126.308 407.567,124.642 409.5,123.5 Z"/></g>
<g><path style="opacity:0.564" fill="#57c1d2" d="M 112.5,133.5 C 114.384,136.452 117.051,138.452 120.5,139.5C 122.383,139.124 123.883,138.124 125,136.5C 124.397,139.93 122.231,141.93 118.5,142.5C 118.103,141.475 117.437,141.308 116.5,142C 114.615,144.222 112.449,146.056 110,147.5C 106.913,146.693 103.913,146.36 101,146.5C 74.8966,148.439 48.73,150.106 22.5,151.5C 15.987,149.782 9.98698,147.115 4.5,143.5C 8.57795,144.702 12.578,146.202 16.5,148C 19.1667,148.167 21.8333,148.333 24.5,148.5C 52.8096,146.007 81.143,144.507 109.5,144C 112.844,142.106 114.178,139.273 113.5,135.5C 112.209,135.737 111.209,135.404 110.5,134.5C 111.492,134.672 112.158,134.338 112.5,133.5 Z"/></g>
<g><path style="opacity:0.012" fill="#57c1d1" d="M 379.5,143.5 C 379.5,143.833 379.5,144.167 379.5,144.5C 376.509,147.938 373.842,151.772 371.5,156C 368.689,156.629 365.856,157.129 363,157.5C 361.319,157.392 360.152,156.725 359.5,155.5C 363.177,154.915 366.843,154.248 370.5,153.5C 372.756,149.917 374.922,146.25 377,142.5C 378.908,139.668 379.741,140.001 379.5,143.5 Z"/></g>
<g><path style="opacity:0.779" fill="#55c1d3" d="M 216.5,141.5 C 216.5,142.167 216.5,142.833 216.5,143.5C 215.662,143.842 215.328,144.508 215.5,145.5C 215.5,145.833 215.5,146.167 215.5,146.5C 214.833,146.5 214.5,146.833 214.5,147.5C 213.662,147.842 213.328,148.508 213.5,149.5C 201.768,150.641 190.268,152.974 179,156.5C 175.806,155.506 173.639,153.506 172.5,150.5C 174.67,151.749 177.004,152.749 179.5,153.5C 183.131,152.509 186.798,151.676 190.5,151C 192.076,150.56 193.41,149.727 194.5,148.5C 196.513,149.596 198.346,149.263 200,147.5C 204.329,148.704 208.495,148.204 212.5,146C 213.328,144.008 214.661,142.508 216.5,141.5 Z"/></g>
<g><path style="opacity:1" fill="#c8df49" d="M 359.5,147.5 C 359.34,149.153 358.674,150.486 357.5,151.5C 356.054,150.387 354.387,150.22 352.5,151C 353.15,152.609 352.65,154.109 351,155.5C 350.101,149.002 352.934,146.335 359.5,147.5 Z"/></g>
<g><path style="opacity:1" fill="#7ecaa7" d="M 444.5,146.5 C 446.144,146.81 447.144,147.81 447.5,149.5C 447.5,150.833 447.5,152.167 447.5,153.5C 446.566,152.432 446.232,151.099 446.5,149.5C 443.059,149.699 439.726,149.199 436.5,148C 439.365,147.817 442.031,147.317 444.5,146.5 Z"/></g>
<g><path style="opacity:1" fill="#efea1d" d="M 251.5,140.5 C 252.609,140.557 253.609,140.89 254.5,141.5C 260.833,143.5 267.167,145.5 273.5,147.5C 274.8,148.827 276.133,150.16 277.5,151.5C 274.714,154.467 271.547,156.801 268,158.5C 254.219,155.022 241.052,150.022 228.5,143.5C 224.385,151 220.552,158.667 217,166.5C 214.963,164.294 212.797,162.294 210.5,160.5C 210.624,156.588 211.624,152.921 213.5,149.5C 214.338,149.158 214.672,148.492 214.5,147.5C 215.167,147.5 215.5,147.167 215.5,146.5C 215.5,146.167 215.5,145.833 215.5,145.5C 216.338,145.158 216.672,144.492 216.5,143.5C 217.338,143.158 217.672,142.492 217.5,141.5C 229.012,141.828 240.346,141.495 251.5,140.5 Z"/></g>
<g><path style="opacity:0.785" fill="#54c0d5" d="M 447.5,149.5 C 463.198,158.011 478.531,167.011 493.5,176.5C 488.963,175.358 484.463,174.024 480,172.5C 469.015,166.263 458.181,159.93 447.5,153.5C 447.5,152.167 447.5,150.833 447.5,149.5 Z"/></g>
<g><path style="opacity:0.229" fill="#57c1d1" d="M 151.5,121.5 C 151.5,121.833 151.5,122.167 151.5,122.5C 148.167,126.833 144.833,131.167 141.5,135.5C 140.833,135.5 140.5,135.833 140.5,136.5C 139.5,137.833 138.5,139.167 137.5,140.5C 136.833,140.5 136.5,140.833 136.5,141.5C 135.833,141.5 135.5,141.833 135.5,142.5C 135.068,143.71 134.401,144.71 133.5,145.5C 132.833,145.5 132.5,145.833 132.5,146.5C 131.833,146.5 131.5,146.833 131.5,147.5C 131.672,148.492 131.338,149.158 130.5,149.5C 129.833,149.5 129.5,149.833 129.5,150.5C 128.833,150.5 128.5,150.833 128.5,151.5C 120.654,159.852 113.321,168.685 106.5,178C 102.581,178.75 98.9146,180.083 95.5,182C 90.8555,186.314 86.5222,190.98 82.5,196C 81.2506,196.74 80.2506,196.573 79.5,195.5C 83.3014,191.527 86.9681,187.36 90.5,183C 94.9216,180.262 99.5882,177.929 104.5,176C 113.213,166.029 121.547,155.862 129.5,145.5C 135.802,138.357 141.969,131.024 148,123.5C 149.113,122.695 150.279,122.028 151.5,121.5 Z"/></g>
<g><path style="opacity:0.231" fill="#57c1d2" d="M 344.5,155.5 C 340.43,158.287 336.263,160.954 332,163.5C 328.806,162.506 326.639,160.506 325.5,157.5C 327.757,157.962 329.757,158.962 331.5,160.5C 337.018,156.425 342.685,152.925 348.5,150C 347.335,151.992 346.002,153.825 344.5,155.5 Z"/></g>
<g><path style="opacity:0.387" fill="#54c0d4" d="M 425.5,144.5 C 426.795,145.488 428.128,146.488 429.5,147.5C 451.671,159.753 474.004,171.753 496.5,183.5C 496.631,184.376 496.298,185.043 495.5,185.5C 469.079,171.874 442.913,157.874 417,143.5C 412.928,149.301 409.095,155.301 405.5,161.5C 403.032,160.197 400.699,158.697 398.5,157C 397.426,156.261 396.759,155.261 396.5,154C 397.984,150.87 399.317,147.703 400.5,144.5C 401.947,145.134 402.613,146.301 402.5,148C 399.046,152.622 399.879,156.122 405,158.5C 408.164,154.159 410.664,149.492 412.5,144.5C 413.379,142.77 414.712,141.437 416.5,140.5C 419.665,141.585 422.665,142.918 425.5,144.5 Z"/></g>
<g><path style="opacity:0.474" fill="#57c1d2" d="M 273.5,147.5 C 276.01,147.991 278.344,148.991 280.5,150.5C 278.748,152.246 277.415,154.246 276.5,156.5C 275.833,156.5 275.5,156.833 275.5,157.5C 273.765,159.235 271.765,160.568 269.5,161.5C 255.703,157.596 242.37,152.596 229.5,146.5C 225.161,153.678 221.494,161.178 218.5,169C 215.564,168.107 213.064,166.274 211,163.5C 210.517,162.552 210.351,161.552 210.5,160.5C 212.797,162.294 214.963,164.294 217,166.5C 220.552,158.667 224.385,151 228.5,143.5C 241.052,150.022 254.219,155.022 268,158.5C 271.547,156.801 274.714,154.467 277.5,151.5C 276.133,150.16 274.8,148.827 273.5,147.5 Z"/></g>
<g><path style="opacity:1" fill="#e8e828" d="M 444.5,145.5 C 444.5,145.833 444.5,146.167 444.5,146.5C 442.031,147.317 439.365,147.817 436.5,148C 439.726,149.199 443.059,149.699 446.5,149.5C 446.232,151.099 446.566,152.432 447.5,153.5C 458.181,159.93 469.015,166.263 480,172.5C 484.463,174.024 488.963,175.358 493.5,176.5C 495.818,178.185 496.818,180.519 496.5,183.5C 474.004,171.753 451.671,159.753 429.5,147.5C 434.363,146.734 439.363,146.068 444.5,145.5 Z"/></g>
<g><path style="opacity:0.086" fill="#5bc1ce" d="M 335.5,135.5 C 333.858,136.803 332.191,138.136 330.5,139.5C 329.833,139.5 329.5,139.833 329.5,140.5C 317.768,143.688 306.102,147.188 294.5,151C 288.951,160.597 283.784,170.43 279,180.5C 274.717,183.115 270.717,186.115 267,189.5C 265.37,194.455 262.536,198.455 258.5,201.5C 257.893,201.376 257.56,201.043 257.5,200.5C 260.811,197.169 263.311,193.169 265,188.5C 269.048,184.784 273.382,181.45 278,178.5C 282.347,168.65 287.18,158.983 292.5,149.5C 304.112,146.015 315.445,142.015 326.5,137.5C 329.461,136.677 332.461,136.01 335.5,135.5 Z"/></g>
<g><path style="opacity:0.612" fill="#5cc2cd" d="M 177.5,139.5 C 176.833,139.5 176.5,139.833 176.5,140.5C 165.207,147.823 154.207,155.657 143.5,164C 138.027,163.766 133.36,161.599 129.5,157.5C 128.614,156.675 128.281,155.675 128.5,154.5C 132.543,157.04 136.709,159.373 141,161.5C 144.689,159.734 148.189,157.567 151.5,155C 148.691,154.688 146.024,155.188 143.5,156.5C 143.5,155.5 143.5,154.5 143.5,153.5C 147.49,153.001 151.49,152.501 155.5,152C 157.349,150.907 159.016,149.574 160.5,148C 157.5,147.667 154.5,147.333 151.5,147C 156.282,146.881 160.949,146.215 165.5,145C 167.983,142.594 170.65,140.427 173.5,138.5C 171.577,137.692 169.577,137.192 167.5,137C 170.833,136.667 174.167,136.333 177.5,136C 179.833,134.167 182.167,132.333 184.5,130.5C 184.833,130.667 185.167,130.833 185.5,131C 183.981,132.351 182.648,133.851 181.5,135.5C 182.376,136.251 183.376,136.751 184.5,137C 181.823,137.168 179.49,138.001 177.5,139.5 Z"/></g>
<g><path style="opacity:0.096" fill="#4ec0da" d="M 302.5,169.5 C 305.365,169.055 307.865,169.722 310,171.5C 310.682,175.069 310.182,178.402 308.5,181.5C 312.893,181.543 313.226,181.043 309.5,180C 312.74,177.857 315.573,178.357 318,181.5C 318.95,180.978 319.784,180.311 320.5,179.5C 325.908,182.696 330.575,181.863 334.5,177C 336.134,176.506 337.801,176.34 339.5,176.5C 339.936,169.301 343.269,167.635 349.5,171.5C 350.309,173.071 350.643,174.738 350.5,176.5C 355.844,176.666 361.177,176.499 366.5,176C 367.108,175.13 367.941,174.63 369,174.5C 373.425,175.7 377.758,177.033 382,178.5C 383.02,177.109 383.853,175.609 384.5,174C 382.956,174.487 381.29,174.987 379.5,175.5C 379.5,173.5 379.5,171.5 379.5,169.5C 382.833,169.5 386.167,169.5 389.5,169.5C 389.682,171.591 389.348,173.591 388.5,175.5C 389,175.833 389.5,176.167 390,176.5C 396.043,175.203 402.043,175.203 408,176.5C 409.594,174.018 411.428,173.852 413.5,176C 419.946,176.737 421.613,176.57 418.5,175.5C 418.5,173.5 418.5,171.5 418.5,169.5C 421.833,169.5 425.167,169.5 428.5,169.5C 428.756,171.792 428.423,173.959 427.5,176C 435.88,176.18 444.213,176.347 452.5,176.5C 451.106,178.602 449.439,178.935 447.5,177.5C 443.529,178.197 439.529,178.697 435.5,179C 435.957,179.414 436.291,179.914 436.5,180.5C 433.298,181.047 430.298,182.047 427.5,183.5C 426.719,182.271 426.219,180.938 426,179.5C 425.333,181.5 424.667,183.5 424,185.5C 422.644,186.38 421.144,186.714 419.5,186.5C 419.421,185.07 419.754,183.736 420.5,182.5C 419.635,181.417 418.635,181.251 417.5,182C 418.609,183.813 417.942,184.646 415.5,184.5C 415.5,183.5 415.5,182.5 415.5,181.5C 407.804,181.831 400.138,181.497 392.5,180.5C 397.802,179.671 403.136,179.171 408.5,179C 401.476,178.169 394.476,178.336 387.5,179.5C 386.123,181.289 385.123,183.289 384.5,185.5C 383.311,186.429 381.978,186.762 380.5,186.5C 380.357,184.738 380.691,183.071 381.5,181.5C 378.161,180.6 375.495,179.6 373.5,178.5C 373.349,181.718 372.516,182.051 371,179.5C 369.812,180.563 369.312,181.897 369.5,183.5C 367.43,183.551 365.597,182.885 364,181.5C 362.78,182.388 361.447,183.055 360,183.5C 357.452,181.558 354.786,180.892 352,181.5C 350.606,182.613 349.439,183.947 348.5,185.5C 347.393,186.022 346.226,186.355 345,186.5C 341.856,184.216 338.356,182.549 334.5,181.5C 333.034,182.135 331.7,182.969 330.5,184C 320.458,184.504 310.458,185.338 300.5,186.5C 300.579,185.07 300.246,183.736 299.5,182.5C 302.162,180.798 304.495,178.131 306.5,174.5C 306.167,174.167 305.833,173.833 305.5,173.5C 304.158,175.005 302.492,175.672 300.5,175.5C 300.253,173.142 300.919,171.142 302.5,169.5 Z M 344.5,173.5 C 347.279,175.302 347.112,176.969 344,178.5C 343.36,176.735 343.527,175.068 344.5,173.5 Z M 356.5,179.5 C 359.64,178.359 362.973,178.192 366.5,179C 363.953,179.067 361.786,179.901 360,181.5C 359.29,180.027 358.124,179.36 356.5,179.5 Z"/></g>
<g><path style="opacity:0.004" fill="#73c9b9" d="M 472.5,178.5 C 472.897,177.475 473.563,177.308 474.5,178C 473.906,178.464 473.239,178.631 472.5,178.5 Z"/></g>
<g><path style="opacity:0.02" fill="#4ec1db" d="M 294.5,179.5 C 295.833,180.167 295.833,180.167 294.5,179.5 Z"/></g>
<g><path style="opacity:0.01" fill="#4ec1db" d="M 390.5,179.5 C 391.525,179.897 391.692,180.563 391,181.5C 390.536,180.906 390.369,180.239 390.5,179.5 Z"/></g>
<g><path style="opacity:0.006" fill="#73c9b9" d="M 456.5,179.5 C 458.337,179.639 458.67,180.306 457.5,181.5C 456.702,181.043 456.369,180.376 456.5,179.5 Z"/></g>
<g><path style="opacity:0.014" fill="#50c1d7" d="M 291.5,181.5 C 293.604,181.201 295.604,181.534 297.5,182.5C 296.5,182.833 295.5,183.167 294.5,183.5C 292.97,183.36 291.97,182.693 291.5,181.5 Z"/></g>
</svg>
